<svg width="48" height="49" viewBox="0 0 48 49" fill="none" xmlns="http://www.w3.org/2000/svg">
<circle cx="24" cy="24.5" r="24" fill="#E3EFDA"/>
<path fill-rule="evenodd" clip-rule="evenodd" d="M24.5 12C18.1487 12 13 17.1487 13 23.5V26.75C13 28.1989 13.268 29.5853 13.757 30.8622C13.7587 31.071 13.8245 31.2812 13.959 31.4614C14.295 31.9118 14.9325 32.0045 15.3829 31.6685L16.0377 31.18C16.0622 31.1684 16.0863 31.1576 16.1101 31.1474C16.1073 31.1423 16.1046 31.1372 16.1018 31.1321L20.5 27.8509V33.75C20.5 34.8546 21.3954 35.75 22.5 35.75H26.5C27.6046 35.75 28.5 34.8546 28.5 33.75V27.4121L33.1411 30.6477C33.1325 30.6663 33.1238 30.6848 33.1151 30.7033L33.1169 30.7015C33.2205 30.8021 33.3849 30.9058 33.5983 30.9664L33.7875 31.0983C34.2484 31.4196 34.8826 31.3065 35.2039 30.8455C35.2901 30.7219 35.3451 30.5858 35.3704 30.4466C35.3808 30.4381 35.3913 30.4295 35.4017 30.4208C35.7897 29.268 36 28.0336 36 26.75V23.5C36 17.1487 30.8513 12 24.5 12ZM33.8083 28.6323C33.934 28.0246 34 27.395 34 26.75V23.25C34 18.1414 29.8586 14 24.75 14H24.25C19.1414 14 15 18.1414 15 23.25V26.75C15 27.5894 15.1118 28.4026 15.3213 29.1757L20.6743 25.1822C20.9869 24.4853 21.6868 24 22.5 24H26.5C26.9898 24 27.4385 24.1761 27.7862 24.4683C27.8596 24.497 27.9308 24.5348 27.9983 24.5819L33.8083 28.6323ZM27 20.875C27 22.4628 25.7128 23.75 24.125 23.75C22.5372 23.75 21.25 22.4628 21.25 20.875C21.25 19.2872 22.5372 18 24.125 18C25.7128 18 27 19.2872 27 20.875Z" fill="#77CF2F"/>
</svg>
