<svg width="24" height="24" viewBox="0 0 24 24" fill="none" xmlns="http://www.w3.org/2000/svg">
<path fill-rule="evenodd" clip-rule="evenodd" d="M6.66671 5.47984C8.35198 3.14487 10.8699 1.54662 13.7001 1.01538C13.8344 0.990667 13.9725 0.995784 14.1046 1.03037C14.2367 1.06496 14.3596 1.12818 14.4646 1.21554C14.5695 1.30291 14.654 1.41228 14.712 1.53592C14.77 1.65956 14.8001 1.79444 14.8002 1.931V22.069C14.8001 22.2056 14.77 22.3404 14.712 22.4641C14.654 22.5877 14.5695 22.6971 14.4646 22.7845C14.3596 22.8718 14.2367 22.935 14.1046 22.9696C13.9725 23.0042 13.8344 23.0093 13.7001 22.9846C10.8701 22.4535 8.35243 20.8552 6.66764 18.5202H5.48563C4.2509 18.5187 3.06717 18.0275 2.19408 17.1545C1.321 16.2814 0.829848 15.0976 0.828369 13.8629V10.1371C0.829848 8.90237 1.321 7.71863 2.19408 6.84555C3.06717 5.97246 4.2509 5.48131 5.48563 5.47984H6.66671ZM20.2026 4.82129C20.0249 4.66291 19.7934 4.57856 19.5554 4.58555C19.3175 4.59255 19.0913 4.69035 18.9232 4.8589C18.7552 5.02744 18.658 5.25393 18.6517 5.49187C18.6454 5.72981 18.7304 5.96114 18.8893 6.13837C20.4413 7.69434 21.3128 9.80231 21.3128 12C21.3128 14.1977 20.4413 16.3056 18.8893 17.8616C18.7947 17.9459 18.7183 18.0487 18.6648 18.1635C18.6112 18.2784 18.5817 18.4029 18.578 18.5296C18.5743 18.6562 18.5964 18.7823 18.6431 18.9001C18.6898 19.0179 18.76 19.1249 18.8495 19.2146C18.9389 19.3044 19.0458 19.3749 19.1634 19.4219C19.2811 19.4689 19.4071 19.4914 19.5338 19.4881C19.6604 19.4847 19.7851 19.4555 19.9001 19.4023C20.0151 19.3491 20.118 19.273 20.2026 19.1787C22.1039 17.2734 23.1716 14.6916 23.1716 12C23.1716 9.30834 22.1039 6.72661 20.2026 4.82129ZM17.6812 7.61565C17.5953 7.52669 17.4925 7.45573 17.3789 7.40691C17.2653 7.35809 17.143 7.3324 17.0194 7.33132C16.8957 7.33025 16.773 7.35382 16.6586 7.40065C16.5441 7.44748 16.4401 7.51665 16.3526 7.6041C16.2652 7.69156 16.196 7.79556 16.1492 7.91003C16.1023 8.0245 16.0788 8.14716 16.0798 8.27083C16.0809 8.39451 16.1066 8.51674 16.1554 8.63038C16.2043 8.74402 16.2752 8.8468 16.3642 8.93272C17.1761 9.74706 17.632 10.8501 17.632 12C17.632 13.1499 17.1761 14.2529 16.3642 15.0673C16.2752 15.1532 16.2043 15.256 16.1554 15.3696C16.1066 15.4833 16.0809 15.6055 16.0798 15.7292C16.0788 15.8528 16.1023 15.9755 16.1492 16.09C16.196 16.2044 16.2652 16.3084 16.3526 16.3959C16.4401 16.4833 16.5441 16.5525 16.6586 16.5993C16.773 16.6462 16.8957 16.6697 17.0194 16.6687C17.143 16.6676 17.2653 16.6419 17.3789 16.5931C17.4925 16.5443 17.5953 16.4733 17.6812 16.3843C18.8422 15.2205 19.4941 13.6438 19.4941 12C19.4941 10.3562 18.8422 8.77945 17.6812 7.61565Z" fill="#3A4149"/>
</svg>
